:FULLY-SPECIFIED
:FORCE-ALL-JOINTS-BE-3DOF
:DEGREES
1019
root 1.20048 15.2199 32.8242 6.27414 -5.0292 4.18886
lfemur 7.08973 -1.0799 4.35795
ltibia 2.68545 -0 0
lfoot -32.6323 -13.1741 -0.12717
ltoes -34.202 0 0
rfemur -28.9228 -11.2112 -8.90221
rtibia 44.8952 -0 0
rfoot -20.8898 1.38651 -0.343678
rtoes -44.6731 0 0
lowerback -3.41955 -0.184152 -0.206791
upperback -1.1989 -0.216064 -6.85002
thorax 0.579452 -0.108284 -7.0663
lowerneck -7.24921 0.916274 5.1301
upperneck 1.97598 0.602265 3.76236
head 1.84692 0.447263 0.341431
lclavicle 4.9633e-15 -1.149e-14 -3.918e-32
lhumerus -59.5681 -45.1504 114.329
lradius 55.2979 -0 0
lwrist 26.3352 0 0
lhand 40.1721 25.5458 -0.0931055
lfingers 7.12502 -0 0
lthumb 62.5554 36.4482 -0.0590639
rclavicle 4.9633e-15 -1.149e-14 -3.918e-32
rhumerus 2.52951 -10 0.401452
rradius 31.1985 -0 0
rwrist -12.4319 0 0
rhand -22.9444 -38.6097 -0.106469
rfingers 7.12502 -0 0
rthumb 3.49584 -68.5051 -0.0914529
1020
root 1.20159 15.2188 32.8216 6.2522 -5.00451 4.17016
lfemur 7.09761 -1.04673 4.37167
ltibia 2.7022 -0 0
lfoot -32.6294 -13.1221 -0.124827
ltoes -34.2061 0 0
rfemur -28.9467 -11.2786 -8.85825
rtibia 44.975 -0 0
rfoot -20.9102 1.45178 -0.33808
rtoes -44.6083 0 0
lowerback -3.39594 -0.181139 -0.21331
upperback -1.18635 -0.211433 -6.83285
thorax 0.581088 -0.105993 -7.04322
lowerneck -7.2555 0.91133 5.15233
upperneck 1.97966 0.592912 3.76528
head 1.8495 0.443041 0.338193
lclavicle 4.89143e-15 -1.06114e-14 -8.14469e-33
lhumerus -59.5455 -45.1785 114.35
lradius 55.3043 -0 0
lwrist 26.3218 0 0
lhand 40.1262 25.5437 -0.0914017
lfingers 7.12502 -0 0
lthumb 62.5165 36.4906 -0.0587374
rclavicle 4.89143e-15 -1.06114e-14 -8.14469e-33
rhumerus 2.52166 -10.2408 0.405696
rradius 31.1257 -0 0
rwrist -12.3661 0 0
rhand -23.0865 -38.6565 -0.101592
rfingers 7.12502 -0 0
rthumb 3.35857 -68.5529 -0.0868903
1021
root 1.20273 15.2178 32.8191 6.2301 -4.97931 4.15142
lfemur 7.10514 -1.01306 4.38514
ltibia 2.71957 -0 0
lfoot -32.6262 -13.0699 -0.122454
ltoes -34.2097 0 0
rfemur -28.9711 -11.3463 -8.81391
rtibia 45.0558 -0 0
rfoot -20.9299 1.51721 -0.332382
rtoes -44.5428 0 0
lowerback -3.37213 -0.178211 -0.219916
upperback -1.17375 -0.206916 -6.81561
thorax 0.582688 -0.103762 -7.02
lowerneck -7.2618 0.906302 5.17448
upperneck 1.98339 0.583447 3.76823
head 1.85209 0.438764 0.334973
lclavicle 4.81855e-15 -9.73328e-15 2.1831e-32
lhumerus -59.5226 -45.2065 114.371
lradius 55.3108 -0 0
lwrist 26.3083 0 0
lhand 40.0801 25.5415 -0.0896749
lfingers 7.12502 -0 0
lthumb 62.4775 36.5328 -0.0583749
rclavicle 4.81855e-15 -9.73328e-15 2.1831e-32
rhumerus 2.51297 -10.4811 0.408983
rradius 31.0539 -0 0
rwrist -12.3005 0 0
rhand -23.2289 -38.7036 -0.0967741
rfingers 7.12502 -0 0
rthumb 3.22106 -68.601 -0.0823884
1022
root 1.20391 15.2168 32.8165 6.20785 -4.95363 4.13266
lfemur 7.11233 -0.978909 4.39838
ltibia 2.73753 -0 0
lfoot -32.6227 -13.0176 -0.120052
ltoes -34.2128 0 0
rfemur -28.9959 -11.4143 -8.76922
rtibia 45.1376 -0 0
rfoot -20.949 1.58277 -0.326589
rtoes -44.4767 0 0
lowerback -3.34815 -0.175366 -0.226603
upperback -1.16109 -0.20251 -6.7983
thorax 0.584253 -0.10159 -6.99665
lowerneck -7.2681 0.901195 5.19653
upperneck 1.98717 0.573879 3.77121
head 1.85471 0.434436 0.331771
lclavicle 4.74472e-15 -8.85579e-15 5.07149e-32
lhumerus -59.4995 -45.2345 114.391
lradius 55.3173 -0 0
lwrist 26.2946 0 0
lhand 40.0339 25.539 -0.0879269
lfingers 7.12502 -0 0
lthumb 62.4384 36.575 -0.0579769
rclavicle 4.74472e-15 -8.85579e-15 5.07149e-32
rhumerus 2.5035 -10.7208 0.411355
rradius 30.983 -0 0
rwrist -12.235 0 0
rhand -23.3715 -38.7509 -0.0920195
rfingers 7.12502 -0 0
rthumb 3.08337 -68.6493 -0.0779519
